<svg xmlns="http://www.w3.org/2000/svg" viewBox="0 0 551 564" width="551" height="564" role="img" aria-label="joseph12n · language mix" font-family="ui-sans-serif,-apple-system,Segoe UI,Helvetica,Arial,sans-serif"><rect width="100%" height="100%" fill="#FFF6EC"/><text x="275.5" y="25" text-anchor="middle" font-size="15" font-weight="700" fill="#2A1408">joseph12n · language mix</text><g transform="translate(259.3,289.0)"><polygon points="0.0,-212.0 183.6,-106.0 183.6,106.0 0.0,212.0 -183.6,106.0 -183.6,-106.0" fill="none" stroke="#F0D3BC" stroke-width="1" opacity="0.85"/><polygon points="0.0,-159.0 137.7,-79.5 137.7,79.5 0.0,159.0 -137.7,79.5 -137.7,-79.5" fill="none" stroke="#F0D3BC" stroke-width="1" opacity="0.72"/><polygon points="0.0,-106.0 91.8,-53.0 91.8,53.0 0.0,106.0 -91.8,53.0 -91.8,-53.0" fill="none" stroke="#F0D3BC" stroke-width="1" opacity="0.60"/><polygon points="0.0,-53.0 45.9,-26.5 45.9,26.5 0.0,53.0 -45.9,26.5 -45.9,-26.5" fill="none" stroke="#F0D3BC" stroke-width="1" opacity="0.47"/><line x1="0" y1="0" x2="0.0" y2="-212.0" stroke="#FBEADC" stroke-width="1"/><line x1="0" y1="0" x2="183.6" y2="-106.0" stroke="#FBEADC" stroke-width="1"/><line x1="0" y1="0" x2="183.6" y2="106.0" stroke="#FBEADC" stroke-width="1"/><line x1="0" y1="0" x2="0.0" y2="212.0" stroke="#FBEADC" stroke-width="1"/><line x1="0" y1="0" x2="-183.6" y2="106.0" stroke="#FBEADC" stroke-width="1"/><line x1="0" y1="0" x2="-183.6" y2="-106.0" stroke="#FBEADC" stroke-width="1"/><g><animateTransform attributeName="transform" type="scale" values="0.04;1" dur="1.1s" calcMode="spline" keyTimes="0;1" keySplines="0.22 1 0.36 1" fill="freeze"/><polygon points="0.0,-212.0 178.5,-103.0 171.5,99.0 0.0,84.0 -48.1,27.8 -39.1,-22.6" fill="#FF7A2B" fill-opacity="0.22" stroke="#E2620F" stroke-width="2.5" stroke-linejoin="round"/><circle cx="0.0" cy="-212.0" r="3.6" fill="#B23F08" stroke="#E2620F" stroke-width="1.2"/><circle cx="178.5" cy="-103.0" r="3.6" fill="#B23F08" stroke="#E2620F" stroke-width="1.2"/><circle cx="171.5" cy="99.0" r="3.6" fill="#B23F08" stroke="#E2620F" stroke-width="1.2"/><circle cx="0.0" cy="84.0" r="3.6" fill="#B23F08" stroke="#E2620F" stroke-width="1.2"/><circle cx="-48.1" cy="27.8" r="3.6" fill="#B23F08" stroke="#E2620F" stroke-width="1.2"/><circle cx="-39.1" cy="-22.6" r="3.6" fill="#B23F08" stroke="#E2620F" stroke-width="1.2"/></g><text x="0.0" y="-237.0" text-anchor="middle" font-size="13" font-weight="600" fill="#2A1408">Java</text><text x="0.0" y="-222.0" text-anchor="middle" font-size="11" fill="#C2410C">100</text><text x="200.9" y="-121.0" text-anchor="start" font-size="13" font-weight="600" fill="#2A1408">TypeScript</text><text x="200.9" y="-106.0" text-anchor="start" font-size="11" fill="#C2410C">97.2</text><text x="200.9" y="130.0" text-anchor="start" font-size="13" font-weight="600" fill="#2A1408">JavaScript</text><text x="200.9" y="145.0" text-anchor="start" font-size="11" fill="#C2410C">93.4</text><text x="0.0" y="246.0" text-anchor="middle" font-size="13" font-weight="600" fill="#2A1408">Kotlin</text><text x="0.0" y="261.0" text-anchor="middle" font-size="11" fill="#C2410C">39.6</text><text x="-200.9" y="130.0" text-anchor="end" font-size="13" font-weight="600" fill="#2A1408">PHP</text><text x="-200.9" y="145.0" text-anchor="end" font-size="11" fill="#C2410C">26.2</text><text x="-200.9" y="-121.0" text-anchor="end" font-size="13" font-weight="600" fill="#2A1408">Python</text><text x="-200.9" y="-106.0" text-anchor="end" font-size="11" fill="#C2410C">21.3</text></g></svg>